<svg xmlns="http://www.w3.org/2000/svg" version="1.1" xmlns:xlink="http://www.w3.org/1999/xlink" xmlns:svgjs="http://svgjs.com/svgjs" id="Pattern1431SvgRootPreview" width="100%" height="100%"><defs><pattern x="0" y="0" width="1" height="1" patternUnits="userSpaceOnUse" id="Pattern1431Layer1"><g id="PatternRootContent1"><g id="Pattern1431Layer1background"><rect width="1" height="1" id="Pattern1431Background1" class="color_1 fill_color_1" fill="#d5c8e8"></rect></g></g></pattern><pattern x="0" y="0" width="194" height="336" patternUnits="userSpaceOnUse" id="Pattern1431Layer2" patternTransform="matrix(0.5,0,0,0.5,0,0)"><g id="PatternRootContent2"><g id="Pattern1431Layer2Element4"><use xlink:href="#Pattern1431Element4" x="86.48646545410156" y="-184.7949981689453" transform="translate(194, -84) scale(1) translate(-194, 84) rotate(90, 194, -84)"></use><use xlink:href="#Pattern1431Element4" x="-107.51353454589844" y="-184.7949981689453" transform="translate(0, -84) scale(1) translate(0, 84) rotate(90, 0, -84)"></use><use xlink:href="#Pattern1431Element4" x="-10.513534545898438" y="-16.794998168945312" transform="translate(97, 84) scale(1) translate(-97, -84) rotate(90, 97, 84)"></use><use xlink:href="#Pattern1431Element4" x="-204.51353454589844" y="-16.794998168945312" transform="translate(-97, 84) scale(1) translate(97, -84) rotate(90, -97, 84)"></use><use xlink:href="#Pattern1431Element4" x="183.48646545410156" y="-16.794998168945312" transform="translate(291, 84) scale(1) translate(-291, -84) rotate(90, 291, 84)"></use><use xlink:href="#Pattern1431Element4" x="86.48646545410156" y="151.2050018310547" transform="translate(194, 252) scale(1) translate(-194, -252) rotate(90, 194, 252)"></use><use xlink:href="#Pattern1431Element4" x="-107.51353454589844" y="151.2050018310547" transform="translate(0, 252) scale(1) translate(0, -252) rotate(90, 0, 252)"></use><use xlink:href="#Pattern1431Element4" x="-10.513534545898438" y="319.2050018310547" transform="translate(97, 420) scale(1) translate(-97, -420) rotate(90, 97, 420)"></use><use xlink:href="#Pattern1431Element4" x="-10.513534545898438" y="319.2050018310547" transform="translate(97, 420) scale(1) translate(-97, -420) rotate(90, 97, 420)"></use></g></g></pattern><symbol id="Pattern1431Element4"><g class="color_5 fill_color_5" fill="#ebe8ff"><g><g><path d="M108.334,156.35743713378906L117.514,147.1774444580078l9.18,9.18L129.514,153.53744506835938L117.514,141.53744506835938l-12,12ZM129.514,131.53744506835938l0,4l-24,0l0,-4Z"></path><path d="M106.694,130.71743774414062L97.514,139.89744567871094l-9.18,-9.18L85.514,133.53744506835938L97.514,145.53744506835938l12,-12ZM85.514,155.53744506835938l0,-4l24,0l0,4Z"></path></g><g><path d="M115.054,170.8375701904297L118.414,183.377685546875l-12.54,3.36L106.906,190.58999633789062L123.299,186.19769287109375l-4.393,-16.392ZM125.959,201.58999633789062l-3.464,-2l12,-20.785l3.464,2Z"></path><path d="M138.079,182.23728942871094L134.719,169.69717407226562l12.54,-3.36L146.227,162.48487854003906L129.835,166.87718200683594l4.392,16.392ZM127.174,151.48487854003906l3.464,2l-12,20.785l-3.464,-2Z"></path></g><g><path d="M99.154,169.41729736328125L86.614,166.05718994140625l3.36,-12.54L86.122,152.48487854003906L81.729,168.87718200683594l16.393,4.392ZM67.069,163.48487854003906l3.464,-2l12,20.785l-3.464,2Z"></path><path d="M77.769,183.65757751464844L90.309,187.0177001953125l-3.36,12.54L90.801,200.58999633789062L95.193,184.19769287109375l-16.392,-4.392ZM109.854,189.58999633789062l-3.464,2l-12,-20.785l3.464,-2Z"></path></g></g><g><g><path d="M59.805,129.28636169433594L72.345,132.64646911621094l-3.36,12.54L72.837,146.21878051757812L77.23,129.8264617919922l-16.393,-4.392ZM91.89,135.21878051757812l-3.464,2l-12,-20.785l3.464,-2Z"></path><path d="M81.19,115.04607391357422L68.65,111.68595886230469l3.36,-12.54L68.158,98.11365509033203L63.765,114.5059585571289l16.393,4.392ZM49.105,109.11365509033203l3.464,-2l12,20.785l-3.464,2Z"></path></g><g><path d="M50.625,142.3461151123047L41.445,151.52601623535156l-9.18,-9.18L29.445,145.16595458984375L41.445,157.1665496826172l12,-12ZM29.445,167.1663360595703l0,-4l24,0l0,4Z"></path><path d="M52.265,167.9862060546875L61.445,158.80630493164062l9.18,9.18L73.445,165.16636657714844L61.445,153.16664123535156l-12,12ZM73.445,143.16600036621094l0,4l-24,0l0,-4Z"></path></g><g><path d="M43.905,127.86617279052734L40.545,115.32615661621094l12.54,-3.36L52.053,108.11392211914062L35.66,112.50562286376953l4.393,16.393ZM33,97.11353302001953l3.464,2l-12,20.785l-3.464,-2Z"></path><path d="M20.88,116.46635437011719L24.24,129.00637817382812l-12.54,3.36L12.732,136.21861267089844L29.124,131.8260498046875l-4.392,-16.392ZM31.785,147.218994140625l-3.464,-2l12,-20.785l3.464,2Z"></path></g></g><g><g><path d="M58.985,73.72392272949219L62.345,86.26403045654297l-12.54,3.36L50.837,93.4763412475586L67.23,89.08403015136719l-4.393,-16.392ZM69.89,104.4763412475586l-3.464,-2l12,-20.785l3.464,2Z"></path><path d="M82.01,85.1236343383789L78.65,72.58352661132812l12.54,-3.36L90.158,65.37122344970703L73.765,69.7635269165039l4.393,16.392ZM71.105,54.371219635009766l3.464,2l-12,20.785l-3.464,-2Z"></path></g><g><path d="M43.085,72.30354309082031L30.545,68.94332885742188l3.36,-12.54L30.053,55.3709602355957L25.66,71.76386260986328l16.393,4.392ZM11,66.371337890625l3.464,-2l12,20.785l-3.464,2Z"></path><path d="M21.7,86.5439224243164L34.24,89.90412902832031l-3.36,12.54L34.732,103.47650146484375L39.124,87.08446502685547l-16.392,-4.392ZM53.785,92.47611999511719l-3.464,2l-12,-20.785l3.464,-2Z"></path></g><g><path d="M52.265,59.243873596191406L61.445,50.06397247314453l9.18,9.18L73.445,56.424041748046875L61.445,44.423439025878906l-12,12.001ZM73.445,34.42366027832031l0,4l-24,0l0,-4Z"></path><path d="M50.625,33.603782653808594L41.445,42.78368377685547l-9.18,-9.18L29.445,36.423614501953125L41.445,48.4233512878418l12,-12ZM29.445,58.42399597167969l0,-4l24,0l0,4Z"></path></g></g><g><g><path d="M106.694,45.23255920410156L97.514,54.412559509277344l-9.18,-9.18L85.514,48.05255889892578L97.514,60.05255889892578l12,-12ZM85.514,70.05255889892578l0,-4l24,0l0,4Z"></path><path d="M108.334,70.87255859375L117.514,61.69255828857422l9.18,9.18L129.514,68.05255889892578L117.514,56.05255889892578l-12,12ZM129.514,46.05255889892578l0,4l-24,0l0,-4Z"></path></g><g><path d="M99.974,30.752422332763672L96.614,18.21230697631836l12.54,-3.36L108.122,11.000003814697266L91.729,15.39230728149414l4.393,16.392ZM89.069,-4.547473508864641e-13l3.464,2l-12,20.785l-3.464,-2Z"></path><path d="M76.949,19.352703094482422L80.309,31.892818450927734l-12.54,3.36L68.801,39.10512161254883L85.193,34.71281814575195l-4.392,-16.392ZM87.854,50.10512161254883l-3.464,-2l12,-20.785l3.464,2Z"></path></g><g><path d="M115.874,32.172698974609375L128.414,35.53281021118164l-3.36,12.54L128.906,49.10511779785156L133.299,32.71281051635742l-16.393,-4.392ZM147.959,38.10511779785156l-3.464,2l-12,-20.785l3.464,-2Z"></path><path d="M137.259,17.932418823242188L124.719,14.572303771972656l3.36,-12.54L124.227,1L119.835,17.392303466796875l16.392,4.392ZM105.174,11.999996185302734l3.464,-2l12,20.785l-3.464,2Z"></path></g></g><g><g><path d="M155.222,72.30364227294922L142.682,68.94353485107422l3.36,-12.54L142.19,55.3712272644043L137.798,71.76353454589844l16.392,4.392ZM123.137,66.37122344970703l3.464,-2l12,20.785l-3.464,2Z"></path><path d="M133.837,86.5439224243164L146.377,89.90403747558594l-3.36,12.54L146.869,103.4763412475586L151.262,87.08403778076172l-16.393,-4.392ZM165.922,92.4763412475586l-3.464,2l-12,-20.785l3.464,-2Z"></path></g><g><path d="M164.402,59.2438850402832L173.582,50.06398010253906l9.18,9.18L185.582,56.424049377441406L173.582,44.42344665527344l-11.999,12ZM185.582,34.423667907714844l0,4l-24,0l0,-4Z"></path><path d="M162.762,33.60378646850586L153.582,42.78369140625l-9.18,-9.18L141.582,36.42362594604492L153.582,48.42335891723633l12,-12ZM141.582,58.424007415771484l0,-4l24,0l0,4Z"></path></g><g><path d="M171.122,73.72383117675781L174.482,86.26383972167969l-12.54,3.36L162.974,93.47608184814453L179.367,89.0843734741211l-4.393,-16.393ZM182.027,104.4764633178711l-3.464,-2l12,-20.785l3.464,2Z"></path><path d="M194.147,85.12364196777344L190.787,72.58362579345703l12.54,-3.36L202.295,65.37139129638672L185.903,69.76395416259766l4.392,16.392ZM183.242,54.37100601196289l3.464,2l-12,20.785l-3.464,-2Z"></path></g></g><g><g><path d="M156.042,127.86608123779297L152.682,115.32597351074219l12.54,-3.36L164.19,108.11366271972656L147.798,112.50597381591797l4.392,16.392ZM145.137,97.11366271972656l3.464,2l-12,20.785l-3.464,-2Z"></path><path d="M133.017,116.46636199951172L136.377,129.00648498535156l-12.54,3.36L124.869,136.21878051757812L141.262,131.82647705078125l-4.393,-16.392ZM143.922,147.21878051757812l-3.464,-2l12,-20.785l3.464,2Z"></path></g><g><path d="M171.942,129.2864532470703L184.482,132.64666748046875l-3.36,12.54L184.974,146.2190399169922L189.367,129.82614135742188l-16.392,-4.392ZM204.027,135.21865844726562l-3.464,2l-12,-20.785l3.464,-2Z"></path><path d="M193.327,115.04608154296875L180.787,111.68587493896484l3.36,-12.54L180.295,98.1135025024414L175.903,114.50553894042969l16.392,4.392ZM161.242,109.11388397216797l3.464,-2l12,20.785l-3.464,2Z"></path></g><g><path d="M162.762,142.34613037109375L153.582,151.52603149414062l-9.18,-9.18L141.582,145.16595458984375L153.582,157.16656494140625l12,-12.001ZM141.582,167.1663360595703l0,-4l24,0l0,4Z"></path><path d="M164.402,167.98622131347656L173.582,158.8063201904297l9.18,9.18L185.582,165.1663818359375L173.582,153.16665649414062l-12,12ZM185.582,143.16600036621094l0,4l-24,0l0,-4Z"></path></g></g></g></symbol></defs><rect width="100%" height="100%" id="Pattern1431RctLayer1" fill="url(#Pattern1431Layer1)"></rect><rect width="100%" height="100%" id="Pattern1431RctLayer2" fill="url(#Pattern1431Layer2)"></rect></svg>